<!-- icon666.com - MILLIONS OF FREE VECTOR ICONS --><svg version="1.1" id="Capa_1" xmlns="http://www.w3.org/2000/svg" xmlns:xlink="http://www.w3.org/1999/xlink" x="0px" y="0px" viewBox="0 0 512 512" style="enable-background:new 0 0 512 512;" xml:space="preserve"><g><g><path d="M446.728,105.429L343.834,2.535C342.21,0.912,340.009,0,337.713,0H71.393c-4.78,0-8.656,3.876-8.656,8.656v494.688 c0,4.78,3.876,8.656,8.656,8.656h369.213c4.78,0,8.656-3.876,8.656-8.656V111.55C449.263,109.254,448.351,107.052,446.728,105.429 z M431.95,494.688H80.05V17.312h254.078l97.823,97.822V494.688z" fill="#000000" style="fill: rgb(0, 255, 171);"></path></g></g><g><g><path d="M446.728,105.429L343.834,2.535c-2.476-2.476-6.2-3.214-9.434-1.876c-3.234,1.34-5.343,4.496-5.343,7.997V111.55 c0,4.78,3.876,8.656,8.656,8.656h102.893c3.5,0,6.656-2.11,7.996-5.344S449.203,107.904,446.728,105.429z M346.369,102.893V29.555 l73.339,73.339H346.369z" fill="#000000" style="fill: rgb(0, 255, 171);"></path></g></g><g><g><path d="M440.607,102.893H337.713c-3.786,0-7.132,2.459-8.262,6.072c-1.13,3.613,0.22,7.541,3.331,9.697l102.893,71.322 c1.477,1.024,3.201,1.542,4.933,1.542c1.373,0,2.752-0.326,4.014-0.987c2.853-1.493,4.641-4.447,4.641-7.668V111.55 C449.263,106.769,445.387,102.893,440.607,102.893z M431.95,166.338l-66.555-46.132h66.555V166.338z" fill="#000000" style="fill: rgb(0, 255, 171);"></path></g></g><g><g><path d="M207.158,176.29c-3.852-2.827-9.27-2-12.099,1.851l-0.418,0.569c-2.815,3.859-1.975,9.269,1.881,12.088 c1.542,1.128,3.33,1.671,5.105,1.671c2.663,0,5.29-1.224,6.986-3.536l0.4-0.545C211.841,184.535,211.01,179.119,207.158,176.29z" fill="#000000" style="fill: rgb(0, 255, 171);"></path></g></g><g><g><path d="M236.696,138.328c-2.848-1.495-6.288-1.29-8.937,0.535c-2.125,1.464-4.106,3.022-5.892,4.635 c-6.307,5.701-12.147,5.508-13.008,5.443c-0.575-0.113-0.872-0.098-1.487-0.084c-1.149,0.004-5.901-1.676-12.792-7.086 c-1.103-0.868-2.246-1.703-3.399-2.481c-2.653-1.792-6.079-1.971-8.905-0.47c-2.827,1.502-4.594,4.443-4.594,7.643v11.151 c0,2.981,1.531,5.713,3.983,7.285l22.967,15.349c0.061,0.04,0.183,0.119,0.245,0.158c1.399,0.884,2.991,1.326,4.589,1.326 c0.655,0,1.31-0.075,1.952-0.222c0.896-0.198,1.771-0.54,2.591-1.032c0.128-0.076,0.252-0.155,0.375-0.237l22.915-15.313 c2.489-1.575,4.025-4.328,4.025-7.313v-11.623C241.326,142.775,239.543,139.824,236.696,138.328z" fill="#000000" style="fill: rgb(0, 255, 171);"></path></g></g><g><g><path d="M217.408,169.558c-0.378-0.848-0.896-1.641-1.548-2.345c-0.794-0.859-1.766-1.561-2.872-2.047 c-0.612-0.269-1.244-0.463-1.886-0.583c-1.7-0.319-3.432-0.117-4.981,0.54c-1.017,0.431-1.961,1.06-2.77,1.88 c-0.295,0.298-0.571,0.62-0.824,0.965l-7.471,10.177c-2.83,3.853-1.999,9.271,1.855,12.1c1.544,1.134,3.338,1.679,5.117,1.679 c0.266,0,0.532-0.012,0.797-0.038c2.115-0.195,4.151-1.163,5.649-2.835c0.004-0.005,0.009-0.011,0.013-0.015 c0.001-0.001,0.002-0.001,0.002-0.002c0.005-0.005,0.011-0.012,0.016-0.017c0.002-0.002,0.004-0.004,0.005-0.005 c0.003-0.003,0.006-0.008,0.01-0.011c0.161-0.183,0.316-0.374,0.464-0.573c0.002-0.003,0.004-0.005,0.006-0.009 c0.002-0.003,0.004-0.005,0.005-0.008c0.005-0.006,0.011-0.014,0.015-0.021l7.471-10.174c0.003-0.003,0.005-0.006,0.008-0.01 c0.001-0.001,0.001-0.002,0.002-0.003c0.002-0.002,0.003-0.003,0.004-0.005c0.002-0.002,0.003-0.004,0.004-0.005 s0.002-0.002,0.002-0.003c1.127-1.548,1.667-3.348,1.659-5.129C218.157,171.825,217.89,170.637,217.408,169.558z" fill="#000000" style="fill: rgb(0, 255, 171);"></path></g></g><g><g><path d="M264.387,67.084c-0.647-5.074-3.867-13.45-11.769-18.361c-0.134-1.916-0.609-3.985-1.662-6.058 c-1.678-3.303-5.373-7.572-13.449-9.142c-0.545-0.106-1.098-0.159-1.652-0.159h-43.627c-20.695,0-37.532,16.837-37.532,37.532 v17.119c0,5.687,1.943,11.238,5.472,15.632c1.27,1.581,1.986,3.633,2.125,6.099c0.266,4.677,4.206,8.3,8.888,8.162 c4.683-0.133,8.411-3.968,8.411-8.653V87.638c1.377-4.719,4.824-6.078,6.221-6.441h13.521c2.218,0,4.405-0.34,6.504-1.012 c2.226-0.714,5.693-1.964,10.307-3.716c0.883-0.337,1.862-0.347,2.753-0.035l15.063,5.288c4.084,1.522,5.209,4.681,5.498,5.91 v26.25c0,4.524,3.486,8.271,7.996,8.617c0.224,0.017,0.447,0.026,0.668,0.026c4.235,0,7.897-3.1,8.551-7.349 c0.012-0.074,1.177-7.423,4.739-13.134c1.991-3.195,3.045-6.848,3.045-10.564V68.178 C264.457,67.812,264.434,67.446,264.387,67.084z M247.144,69.461c-2.023-1.58-4.427-2.965-7.265-4.007 c-0.039-0.014-0.078-0.028-0.117-0.042l-15.13-5.312c-2.285-0.802-4.675-1.202-7.065-1.202c-2.569,0-5.137,0.463-7.572,1.387 c-4.27,1.621-7.536,2.802-9.443,3.414c-0.386,0.123-0.796,0.186-1.222,0.186h-14.375c-0.372,0-0.744,0.024-1.113,0.071 c-3.174,0.411-7.651,1.922-11.755,5.119c0.923-10.3,9.603-18.4,20.139-18.4H234.9c0.073,0.019,0.141,0.038,0.204,0.057 c-1.104,2.266-1.049,4.722-0.013,7.061c1.092,2.464,3.389,4.041,6.01,4.672c4.402,1.06,5.7,4.967,6.043,6.491V69.461z" fill="#000000" style="fill: rgb(0, 255, 171);"></path></g></g><g><g><path d="M256.719,85.94c-0.602-5.532-4.825-16.072-16.84-20.486c-0.039-0.014-0.078-0.028-0.117-0.042l-15.13-5.312 c-4.742-1.664-9.941-1.598-14.634,0.185c-4.27,1.621-7.536,2.802-9.443,3.414c-0.386,0.123-0.796,0.186-1.222,0.186h-14.375 c-0.372,0-0.744,0.024-1.113,0.071c-6.4,0.83-18.101,6.128-21.358,20.721c-0.138,0.619-0.208,1.251-0.208,1.885v27.943 c0,0.064,0.001,0.128,0.002,0.192c0.024,1.086,0.796,26.737,19.005,38.792l-0.06-0.04l0.269,0.187 c0.803,0.542,1.6,1.124,2.383,1.74c9.004,7.07,16.821,10.697,23.25,10.789c0.556,0.053,1.327,0.102,2.277,0.102 c4.883,0,14.513-1.285,24.069-9.924c1.223-1.104,2.603-2.188,4.122-3.234l0.413-0.29c6.082-4.086,16.604-14.477,18.726-38.163 c0.023-0.256,0.035-0.515,0.035-0.773V86.876C256.77,86.563,256.753,86.251,256.719,85.94z M239.458,113.485 c-1.6,16.865-8.286,23.07-11.111,24.968c-0.156,0.105-0.31,0.213-0.465,0.322l-0.122,0.086c-2.125,1.464-4.106,3.022-5.892,4.635 c-6.307,5.701-12.147,5.508-13.008,5.443c-0.573-0.112-0.871-0.098-1.487-0.085c-1.149,0.004-5.901-1.676-12.792-7.086 c-1.102-0.869-2.245-1.703-3.369-2.463c-0.14-0.098-0.28-0.196-0.396-0.272c-10.281-6.806-11.177-23.586-11.224-24.666V87.638 c1.377-4.719,4.824-6.078,6.221-6.441h13.521c2.218,0,4.405-0.34,6.504-1.012c2.226-0.714,5.693-1.964,10.307-3.716 c0.883-0.337,1.862-0.347,2.753-0.035l15.063,5.288c4.084,1.522,5.209,4.681,5.498,5.91V113.485z" fill="#000000" style="fill: rgb(0, 255, 171);"></path></g></g><g><g><path d="M212.145,164.848c-3.542-1.136-7.415,0.122-9.617,3.121l-7.784,10.601c-2.829,3.85-2.005,9.265,1.844,12.097 c1.545,1.138,3.342,1.686,5.125,1.686c2.656,0,5.278-1.218,6.975-3.521l7.786-10.564c1.121-1.52,1.713-3.404,1.687-5.292 C218.11,169.254,215.687,165.982,212.145,164.848z" fill="#000000" style="fill: rgb(0, 255, 171);"></path></g></g><g><g><path d="M212.382,164.854c-3.497-1.2-7.377-0.039-9.648,2.88c-2.537,3.262-2.409,7.86,0.299,10.983 c1.692,1.951,4.1,2.983,6.544,2.983c1.468,0,2.95-0.372,4.297-1.142c2.698-1.542,4.362-4.409,4.362-7.516v-0.008 C218.234,169.336,215.879,166.054,212.382,164.854z" fill="#000000" style="fill: rgb(0, 255, 171);"></path></g></g><g><g><path d="M216.563,168.022l-0.027-0.038c-2.193-3.053-6.107-4.314-9.683-3.163c-3.577,1.152-6.003,4.509-6.003,8.268 c0,3.171,1.746,6.08,4.533,7.596c1.29,0.701,2.71,1.048,4.13,1.048c1.647,0,3.292-0.469,4.722-1.394 c1.989-1.287,3.363-3.333,3.803-5.66C218.478,172.351,217.944,169.946,216.563,168.022z" fill="#000000" style="fill: rgb(0, 255, 171);"></path></g></g><g><g><path d="M253.228,159.015c-0.898-2.371-2.789-4.229-5.175-5.083l-12.322-4.417c-2.57-0.971-5.506-0.68-7.872,0.9l-23.092,15.431 c-0.001,0-0.002,0.001-0.002,0.001c-0.085,0.056-0.175,0.119-0.251,0.172c-1.899,1.34-3.179,3.387-3.552,5.681 c-0.373,2.294,0.19,4.641,1.566,6.514l16.908,23.028c1.636,2.229,4.232,3.533,6.976,3.533c0.187,0,0.377-0.007,0.566-0.018 c2.949-0.193,5.596-1.876,7.02-4.466l18.72-34.038C253.939,164.03,254.125,161.386,253.228,159.015z M225.364,180.064 l-3.526-4.803l9.751-6.516L225.364,180.064z" fill="#000000" style="fill: rgb(0, 255, 171);"></path></g></g><g><g><path d="M217.982,171.463c-0.434-2.29-1.799-4.325-3.736-5.615l-23.093-15.433c-2.377-1.588-5.304-1.861-7.851-0.908 l-12.345,4.423c-2.386,0.856-4.277,2.714-5.175,5.084c-0.897,2.371-0.711,5.015,0.511,7.237l18.722,34.038 c1.424,2.589,4.071,4.273,7.02,4.466c0.188,0.013,0.377,0.018,0.565,0.018c2.743,0,5.34-1.304,6.979-3.534l9.033-12.304 l0.002-0.002l7.871-10.722C217.906,176.278,218.428,173.821,217.982,171.463z M194.657,178.686 c-0.001,0.001-0.002,0.003-0.003,0.004l-1.007,1.372l-6.225-11.318l9.751,6.516L194.657,178.686z" fill="#000000" style="fill: rgb(0, 255, 171);"></path></g></g><g><g><path d="M310.803,215.535l-4.194-25.321c-1.639-9.906-8.523-18.181-17.966-21.597l-40.565-14.677 c-4.497-1.627-9.459,0.699-11.085,5.195c-1.626,4.496,0.699,9.459,5.195,11.085l40.565,14.677 c3.561,1.289,6.159,4.409,6.777,8.146l4.22,25.288l-168.463,0.032l4.193-25.321c0.619-3.736,3.215-6.858,6.777-8.146 l40.565-14.677c4.496-1.627,6.821-6.591,5.195-11.085c-1.627-4.496-6.593-6.82-11.085-5.195l-40.564,14.677 c-9.442,3.415-16.326,11.69-17.967,21.596l-4.193,25.322c-0.831,5.018,0.579,10.122,3.869,14.001 c3.29,3.88,8.096,6.106,13.183,6.106H293.75c5.088,0,9.892-2.224,13.182-6.104C310.223,225.658,311.634,220.555,310.803,215.535z" fill="#000000" style="fill: rgb(0, 255, 171);"></path></g></g><g><g><path d="M395.37,272.111H116.629c-4.78,0-8.656,3.876-8.656,8.656s3.876,8.656,8.656,8.656H395.37c4.78,0,8.656-3.876,8.656-8.656 S400.151,272.111,395.37,272.111z" fill="#000000" style="fill: rgb(0, 255, 171);"></path></g></g><g><g><path d="M395.37,314.677H116.629c-4.78,0-8.656,3.876-8.656,8.656s3.876,8.656,8.656,8.656H395.37c4.78,0,8.656-3.876,8.656-8.656 S400.151,314.677,395.37,314.677z" fill="#000000" style="fill: rgb(0, 255, 171);"></path></g></g><g><g><path d="M395.37,357.243H116.629c-4.78,0-8.656,3.876-8.656,8.656s3.876,8.656,8.656,8.656H395.37c4.78,0,8.656-3.876,8.656-8.656 S400.151,357.243,395.37,357.243z" fill="#000000" style="fill: rgb(0, 255, 171);"></path></g></g><g><g><path d="M395.37,399.818H116.629c-4.78,0-8.656,3.876-8.656,8.656s3.876,8.656,8.656,8.656H395.37c4.78,0,8.656-3.876,8.656-8.656 S400.151,399.818,395.37,399.818z" fill="#000000" style="fill: rgb(0, 255, 171);"></path></g></g><g><g><path d="M344.185,442.384H116.629c-4.78,0-8.656,3.876-8.656,8.656c0,4.78,3.876,8.656,8.656,8.656h227.555 c4.78,0,8.657-3.876,8.657-8.656C352.841,446.26,348.965,442.384,344.185,442.384z" fill="#000000" style="fill: rgb(0, 255, 171);"></path></g></g></svg>